<svg width="108" height="17" viewBox="0 0 108 17" fill="none" xmlns="http://www.w3.org/2000/svg">
<path d="M13.3327 9.17141L9.58025 15.5981L5.82781 9.17141H13.3327ZM14.338 8.597H4.81848L9.58025 16.7349L14.338 8.597Z" fill="#263238"/>
<path d="M19.8568 1.17803L23.6092 7.60476H16.1043L19.8568 1.17803ZM19.8568 0.0292511L15.095 8.16711H24.6185L19.8568 0.0292511Z" fill="#263238"/>
<path d="M0.256104 0.0292511L4.24869 7.2272L8.61161 0.209993L0.256104 0.0292511Z" fill="#4CAF4F"/>
<path d="M9.58035 0.659807L13.7683 7.8176H5.38428L9.58035 0.659807Z" fill="#4CAF4F"/>
<path d="M14.8468 9.38028L19.0388 16.7349H10.4553L14.7165 9.38028H14.8468Z" fill="#4CAF4F"/>
<path d="M15.7544 8.93442L19.8569 16.1766L24.0163 8.93442H15.7544Z" fill="#4CAF4F"/>
<path d="M42.0431 1.19101V15.3655H39.4545L33.2878 6.44416H33.184V15.3655H30.1871V1.19101H32.8172L38.9355 10.1054H39.06V1.19101H42.0431Z" fill="#263238"/>
<path d="M49.3085 15.5732C48.215 15.5732 47.2737 15.3517 46.4847 14.9087C45.7003 14.4612 45.0959 13.829 44.6714 13.0123C44.2469 12.191 44.0346 11.2198 44.0346 10.0985C44.0346 9.00499 44.2469 8.04525 44.6714 7.21933C45.0959 6.39341 45.6934 5.74974 46.4639 5.28833C47.2391 4.82692 48.1481 4.59622 49.1909 4.59622C49.8922 4.59622 50.5451 4.70926 51.1496 4.93535C51.7586 5.15683 52.2892 5.49135 52.7414 5.93892C53.1982 6.38649 53.5535 6.94941 53.8073 7.62768C54.061 8.30134 54.1879 9.09035 54.1879 9.99471V10.8045H45.2112V8.9773H51.4126C51.4126 8.55281 51.3203 8.17676 51.1357 7.84916C50.9511 7.52155 50.6951 7.26547 50.3675 7.08091C50.0445 6.89173 49.6684 6.79714 49.2393 6.79714C48.7917 6.79714 48.3949 6.90096 48.0489 7.10859C47.7074 7.31161 47.4398 7.58615 47.246 7.93221C47.0522 8.27365 46.953 8.65432 46.9484 9.0742V10.8114C46.9484 11.3374 47.0453 11.7919 47.2391 12.1749C47.4375 12.5578 47.7167 12.8531 48.0766 13.0608C48.4365 13.2684 48.8633 13.3722 49.357 13.3722C49.6846 13.3722 49.9845 13.3261 50.2567 13.2338C50.529 13.1415 50.762 13.0031 50.9558 12.8185C51.1496 12.634 51.2972 12.4079 51.3987 12.1403L54.1256 12.3202C53.9872 12.9754 53.7035 13.5476 53.2743 14.0367C52.8498 14.5211 52.3008 14.8995 51.6271 15.1717C50.9581 15.4393 50.1852 15.5732 49.3085 15.5732Z" fill="#263238"/>
<path d="M58.3856 4.73464L60.3374 8.4513L62.3376 4.73464H65.3621L62.2822 10.0501L65.4452 15.3655H62.4345L60.3374 11.6904L58.2749 15.3655H55.2296L58.3856 10.0501L55.3403 4.73464H58.3856Z" fill="#263238"/>
<path d="M71.5358 15.5732C70.4469 15.5732 69.5102 15.3424 68.7258 14.881C67.946 14.415 67.3462 13.769 66.9263 12.9431C66.511 12.1172 66.3034 11.1667 66.3034 10.0916C66.3034 9.00268 66.5133 8.04756 66.9332 7.22625C67.3577 6.40033 67.9599 5.75666 68.7396 5.29525C69.5194 4.82923 70.4469 4.59622 71.5219 4.59622C72.4494 4.59622 73.2615 4.76463 73.9582 5.10146C74.6549 5.43829 75.2063 5.91123 75.6123 6.5203C76.0184 7.12936 76.2422 7.84454 76.2837 8.66585H73.5014C73.423 8.13523 73.2153 7.70843 72.8785 7.38544C72.5463 7.05784 72.1102 6.89404 71.5704 6.89404C71.1136 6.89404 70.7145 7.01862 70.373 7.26778C70.0362 7.51233 69.7732 7.86992 69.584 8.34056C69.3948 8.8112 69.3003 9.38104 69.3003 10.0501C69.3003 10.7284 69.3925 11.3051 69.5771 11.7804C69.7663 12.2556 70.0316 12.6178 70.373 12.867C70.7145 13.1161 71.1136 13.2407 71.5704 13.2407C71.9072 13.2407 72.2094 13.1715 72.4771 13.0331C72.7493 12.8947 72.9731 12.694 73.1484 12.431C73.3284 12.1633 73.446 11.8427 73.5014 11.4689H76.2837C76.2376 12.281 76.0161 12.9962 75.6193 13.6145C75.2271 14.2281 74.6849 14.708 73.9928 15.0541C73.3007 15.4001 72.4817 15.5732 71.5358 15.5732Z" fill="#263238"/>
<path d="M83.0162 15.5732C81.9227 15.5732 80.9814 15.3517 80.1924 14.9087C79.408 14.4612 78.8036 13.829 78.3791 13.0123C77.9546 12.191 77.7423 11.2198 77.7423 10.0985C77.7423 9.00499 77.9546 8.04525 78.3791 7.21933C78.8036 6.39341 79.4011 5.74974 80.1716 5.28833C80.9468 4.82692 81.8558 4.59622 82.8986 4.59622C83.5999 4.59622 84.2528 4.70926 84.8573 4.93535C85.4663 5.15683 85.9969 5.49135 86.4491 5.93892C86.9059 6.38649 87.2612 6.94941 87.515 7.62768C87.7688 8.30134 87.8956 9.09035 87.8956 9.99471V10.8045H78.9189V8.9773H85.1203C85.1203 8.55281 85.028 8.17676 84.8434 7.84916C84.6589 7.52155 84.4028 7.26547 84.0752 7.08091C83.7522 6.89173 83.3761 6.79714 82.947 6.79714C82.4995 6.79714 82.1026 6.90096 81.7566 7.10859C81.4151 7.31161 81.1475 7.58615 80.9537 7.93221C80.7599 8.27365 80.6607 8.65432 80.6561 9.0742V10.8114C80.6561 11.3374 80.753 11.7919 80.9468 12.1749C81.1452 12.5578 81.4244 12.8531 81.7843 13.0608C82.1442 13.2684 82.571 13.3722 83.0647 13.3722C83.3923 13.3722 83.6922 13.3261 83.9644 13.2338C84.2367 13.1415 84.4697 13.0031 84.6635 12.8185C84.8573 12.634 85.0049 12.4079 85.1064 12.1403L87.8334 12.3202C87.6949 12.9754 87.4112 13.5476 86.9821 14.0367C86.5576 14.5211 86.0085 14.8995 85.3348 15.1717C84.6658 15.4393 83.8929 15.5732 83.0162 15.5732Z" fill="#263238"/>
<path d="M92.7681 9.21954V15.3655H89.8197V4.73464H92.6297V6.61027H92.7543C92.9896 5.99198 93.3841 5.50289 93.9378 5.14299C94.4915 4.77847 95.1628 4.59622 95.9519 4.59622C96.6901 4.59622 97.3338 4.75771 97.8829 5.0807C98.4319 5.40368 98.8587 5.86509 99.1633 6.46493C99.4678 7.06014 99.6201 7.77072 99.6201 8.59664V15.3655H96.6717V9.12265C96.6763 8.47206 96.5102 7.96451 96.1733 7.59999C95.8365 7.23087 95.3728 7.0463 94.7822 7.0463C94.3854 7.0463 94.0347 7.13166 93.7302 7.30239C93.4302 7.47311 93.1949 7.72227 93.0242 8.04987C92.8581 8.37286 92.7727 8.76275 92.7681 9.21954Z" fill="#263238"/>
<path d="M107.598 4.73464V6.94941H101.196V4.73464H107.598ZM102.65 2.18766H105.598V12.0987C105.598 12.371 105.64 12.5832 105.723 12.7355C105.806 12.8831 105.921 12.987 106.069 13.0469C106.221 13.1069 106.396 13.1369 106.595 13.1369C106.733 13.1369 106.872 13.1254 107.01 13.1023C107.149 13.0746 107.255 13.0539 107.328 13.04L107.792 15.234C107.645 15.2802 107.437 15.3332 107.169 15.3932C106.902 15.4578 106.576 15.497 106.193 15.5109C105.483 15.5385 104.86 15.444 104.325 15.2271C103.794 15.0102 103.381 14.6734 103.086 14.2166C102.791 13.7598 102.645 13.1831 102.65 12.4863V2.18766Z" fill="#263238"/>
</svg>
